<?xml version="1.0" standalone="no"?>
<!DOCTYPE svg PUBLIC "-//W3C//DTD SVG 20010904//EN"
 "http://www.w3.org/TR/2001/REC-SVG-20010904/DTD/svg10.dtd">
<svg version="1.0" xmlns="http://www.w3.org/2000/svg"
 width="2627.000000pt" height="2569.000000pt" viewBox="0 0 2627.000000 2569.000000"
 preserveAspectRatio="xMidYMid meet">

<g transform="translate(0.000000,2569.000000) scale(0.100000,-0.100000)"
fill="#000000" stroke="none">
<path d="M14146 22079 c-10 -15 -16 -44 -16 -81 0 -54 -2 -59 -26 -68 -15 -6
-81 -8 -162 -4 -119 6 -148 4 -225 -15 -118 -28 -124 -28 -98 5 27 34 26 50
-1 65 -29 16 -323 -4 -458 -31 -52 -11 -114 -22 -138 -25 -24 -4 -98 -25 -165
-46 -67 -22 -148 -42 -180 -46 -53 -5 -60 -4 -74 17 -17 24 -27 24 -165 4 -36
-5 -54 -3 -72 10 -36 23 -92 20 -181 -10 -73 -25 -114 -26 -100 -4 16 25 -23
56 -84 67 -54 11 -71 9 -153 -12 -101 -26 -277 -84 -488 -163 -74 -28 -202
-73 -285 -100 -82 -27 -175 -61 -205 -75 -162 -76 -337 -193 -417 -281 -51
-55 -208 -328 -278 -482 -70 -152 -101 -344 -109 -674 l-6 -215 -34 -70 c-30
-60 -167 -303 -242 -430 -13 -22 -42 -76 -65 -120 -22 -44 -45 -85 -50 -92
-29 -34 -183 -344 -226 -453 -34 -87 -166 -470 -264 -765 -89 -271 -111 -362
-133 -555 -18 -156 -35 -258 -70 -425 -46 -224 -46 -212 15 -680 16 -120 29
-244 29 -275 0 -91 29 -337 55 -470 13 -69 36 -192 50 -274 42 -244 77 -316
255 -525 104 -121 107 -127 154 -313 45 -177 80 -283 97 -293 11 -8 12 -20 -7
181 -12 135 -13 179 -4 210 7 21 14 113 17 204 2 91 6 170 8 177 3 8 15 9 42
3 21 -5 71 -11 111 -13 40 -2 74 -6 76 -8 4 -6 24 -161 36 -284 19 -200 115
-546 195 -706 69 -135 188 -300 292 -403 46 -47 172 -135 242 -171 169 -86
436 -116 681 -76 210 34 236 40 381 91 200 71 387 168 564 293 169 120 395
359 505 534 90 144 200 414 248 613 40 166 44 190 51 365 l6 150 27 13 c51 24
258 36 412 23 142 -11 250 -31 267 -48 5 -5 14 -66 20 -134 47 -579 200 -946
537 -1289 112 -114 233 -211 367 -297 112 -71 320 -178 380 -196 28 -8 73 -24
100 -35 28 -11 98 -31 155 -43 145 -33 413 -33 569 -1 260 54 494 179 647 347
100 110 135 163 193 293 64 143 64 144 115 327 71 256 96 410 96 592 0 122
-10 115 160 111 l115 -3 13 -70 c14 -79 61 -301 68 -327 12 -42 24 -12 23 60
-1 96 14 137 91 263 98 159 157 334 191 569 11 74 25 162 30 195 12 80 11 661
-1 910 -6 110 -17 259 -25 330 -8 72 -19 195 -25 275 -24 309 -118 712 -247
1060 -39 106 -199 437 -248 515 -17 28 -52 95 -79 150 -65 137 -82 169 -134
250 -138 215 -177 266 -277 365 -107 106 -226 269 -309 423 -91 167 -209 298
-362 399 -78 51 -135 110 -271 280 -33 43 -81 99 -106 125 -24 26 -68 77 -98
113 -29 36 -195 207 -368 381 -407 408 -413 414 -518 559 -75 105 -112 140
-182 175 -30 15 -78 43 -107 62 -29 19 -70 37 -92 40 -33 4 -42 2 -56 -18z
m-1786 -2507 c96 -17 247 -48 335 -70 296 -74 389 -85 613 -79 207 6 248 12
572 82 91 20 217 40 280 45 198 15 690 31 749 25 288 -33 353 -47 501 -105
118 -47 179 -87 360 -235 157 -129 306 -288 385 -410 38 -60 145 -238 145
-241 0 -3 11 -21 23 -42 68 -108 199 -377 254 -522 116 -306 191 -520 425
-1210 47 -140 135 -442 164 -564 8 -32 26 -127 41 -210 26 -145 27 -165 27
-531 l1 -380 -120 -3 c-66 -1 -129 0 -141 2 -16 4 -28 28 -53 103 -19 54 -54
136 -78 183 -44 84 -156 231 -230 302 -81 79 -245 168 -373 203 -25 7 -85 24
-133 39 -48 14 -132 33 -185 41 -53 8 -142 24 -197 35 -167 32 -398 59 -645
75 -129 8 -332 22 -450 30 -298 21 -1595 32 -1820 16 -91 -7 -230 -16 -310
-21 -80 -6 -212 -17 -295 -25 -82 -8 -269 -22 -415 -30 -266 -15 -482 -32
-510 -40 -8 -2 -67 -13 -130 -24 -130 -23 -357 -91 -482 -145 -46 -20 -87 -36
-91 -36 -21 0 -168 -99 -253 -171 -199 -168 -311 -316 -378 -502 -27 -71 -29
-75 -64 -81 -64 -10 -215 4 -229 22 -30 38 -8 713 32 977 13 88 27 185 31 215
4 30 31 120 60 200 29 80 64 188 78 240 15 52 38 133 51 180 33 114 41 154 59
295 53 404 156 846 282 1200 51 143 176 389 242 478 145 192 232 275 405 385
166 105 275 161 407 209 155 57 199 70 315 92 61 11 130 25 155 30 25 6 128 9
230 7 149 -3 219 -10 360 -34z m1850 -3578 c96 -3 178 -9 183 -13 9 -9 -91
-56 -148 -71 -22 -5 -67 -25 -99 -45 -32 -19 -61 -35 -63 -35 -3 0 -33 -21
-67 -46 -81 -61 -147 -140 -191 -231 -20 -40 -40 -75 -44 -78 -5 -2 -62 3
-127 11 -116 16 -159 16 -584 1 -37 -2 -46 2 -56 22 -36 71 -116 145 -289 267
-62 43 -238 127 -335 159 -47 16 -51 19 -32 26 22 8 279 25 582 39 165 7 977
4 1270 -6z m1140 -65 c278 -19 468 -53 780 -141 211 -59 313 -112 416 -215
124 -125 232 -325 264 -490 19 -95 8 -392 -19 -518 -113 -528 -252 -778 -521
-938 -122 -72 -314 -144 -455 -169 -386 -69 -882 100 -1270 432 -178 154 -294
299 -389 487 -157 314 -217 557 -219 893 l-2 195 32 60 c82 157 293 274 673
376 25 6 106 20 180 30 141 19 232 18 530 -2z m-3330 -30 c334 -61 609 -177
788 -334 67 -59 101 -118 124 -214 39 -165 16 -375 -68 -628 -106 -317 -222
-516 -424 -727 -97 -101 -256 -234 -358 -299 -92 -58 -128 -79 -237 -131 -127
-62 -190 -83 -370 -127 -118 -29 -149 -32 -331 -37 -180 -4 -208 -2 -275 16
-158 44 -282 116 -404 237 -162 160 -300 405 -361 643 -101 395 -101 691 0
897 43 86 120 184 206 261 36 32 71 64 79 72 23 23 183 128 236 154 216 109
512 192 776 217 63 6 130 13 149 14 19 2 107 5 195 5 125 2 186 -3 275 -19z"/>
<path d="M15115 16715 c-112 -15 -300 -45 -462 -76 -128 -24 -324 -59 -373
-66 -19 -3 -41 -10 -47 -15 -17 -14 -75 -203 -71 -231 6 -40 53 -35 403 48
338 80 687 135 850 135 204 -1 291 -28 465 -144 95 -64 109 -76 292 -253 96
-94 138 -116 138 -73 0 28 -25 85 -52 121 -48 63 -184 226 -218 261 -124 129
-330 255 -476 292 -75 19 -300 19 -449 1z"/>
<path d="M11093 16670 c-121 -16 -271 -49 -326 -74 -102 -45 -182 -116 -345
-306 -193 -226 -223 -271 -207 -319 10 -34 48 -25 101 22 27 24 62 54 78 68
16 13 53 44 81 69 77 66 197 151 260 183 30 15 99 39 152 53 94 25 106 26 298
20 110 -3 265 -11 345 -16 462 -33 469 -33 785 -91 94 -17 199 -33 235 -36 97
-7 100 0 45 133 -25 59 -51 113 -57 120 -12 10 -50 22 -212 65 -84 23 -309 62
-516 90 -174 23 -593 34 -717 19z"/>
<path d="M12858 13315 c-32 -18 -42 -45 -33 -91 5 -29 14 -38 63 -63 70 -35
158 -57 278 -71 50 -5 142 -22 205 -36 150 -34 259 -35 394 -1 55 14 136 28
180 32 98 9 254 57 294 91 38 32 46 58 30 96 -31 75 -147 63 -396 -40 -67 -28
-159 -59 -203 -68 -75 -15 -89 -15 -176 0 -123 21 -258 60 -347 101 -139 63
-234 79 -289 50z"/>
<path d="M16622 13148 c-7 -7 -12 -27 -12 -45 0 -26 5 -36 22 -42 51 -19 92
25 70 74 -13 27 -58 35 -80 13z"/>
<path d="M16470 12581 c-17 -32 -12 -60 14 -76 28 -19 58 -9 76 26 9 16 8 26
-5 45 -20 30 -69 33 -85 5z"/>
<path d="M13729 12036 c-2 -2 -125 -9 -274 -16 -376 -16 -665 -37 -765 -55
-47 -9 -103 -19 -125 -23 -81 -14 -32 -40 129 -68 81 -14 136 -15 501 -3 226
7 460 13 520 15 343 7 780 35 841 54 53 16 103 55 89 69 -19 18 -248 31 -581
31 -182 0 -333 -2 -335 -4z"/>
<path d="M14379 9565 c-5 -4 -65 -17 -355 -75 -167 -33 -240 -36 -470 -20
-157 12 -257 27 -419 65 -60 14 -113 25 -117 25 -10 0 -10 -41 0 -56 11 -17
92 -61 142 -78 325 -108 663 -113 1054 -15 175 44 236 80 236 138 0 17 -6 21
-33 21 -19 0 -36 -2 -38 -5z"/>
</g>
</svg>
